<mxfile host="Electron" modified="2023-10-16T09:30:28.315Z" agent="Mozilla/5.0 (Macintosh; Intel Mac OS X 10_15_7) AppleWebKit/537.36 (KHTML, like Gecko) draw.io/22.0.2 Chrome/114.0.5735.289 Electron/25.8.4 Safari/537.36" etag="DzYZxmZ1Xmht0L7ioG0R" version="22.0.2" type="device">
  <diagram name="Page-1" id="omy8ZBwYc7qbjGJB6eCE">
    <mxGraphModel dx="1430" dy="1651" grid="1" gridSize="10" guides="1" tooltips="1" connect="1" arrows="1" fold="1" page="1" pageScale="1" pageWidth="850" pageHeight="1100" math="0" shadow="0">
      <root>
        <mxCell id="0" />
        <mxCell id="1" parent="0" />
        <mxCell id="JzuE-zLx8FnqEU072DFd-1" value="VPC" style="sketch=0;outlineConnect=0;gradientColor=none;html=1;whiteSpace=wrap;fontSize=12;fontStyle=0;shape=mxgraph.aws4.group;grIcon=mxgraph.aws4.group_vpc;strokeColor=#879196;fillColor=none;verticalAlign=top;align=left;spacingLeft=30;fontColor=#879196;dashed=0;" parent="1" vertex="1">
          <mxGeometry x="1240" y="240" width="480" height="240" as="geometry" />
        </mxCell>
        <mxCell id="JzuE-zLx8FnqEU072DFd-2" value="" style="edgeStyle=orthogonalEdgeStyle;rounded=0;orthogonalLoop=1;jettySize=auto;html=1;" parent="1" source="JzuE-zLx8FnqEU072DFd-3" edge="1">
          <mxGeometry relative="1" as="geometry">
            <mxPoint x="1448.389090909091" y="359" as="targetPoint" />
          </mxGeometry>
        </mxCell>
        <mxCell id="JzuE-zLx8FnqEU072DFd-3" value="Amazon ECS" style="sketch=0;points=[[0,0,0],[0.25,0,0],[0.5,0,0],[0.75,0,0],[1,0,0],[0,1,0],[0.25,1,0],[0.5,1,0],[0.75,1,0],[1,1,0],[0,0.25,0],[0,0.5,0],[0,0.75,0],[1,0.25,0],[1,0.5,0],[1,0.75,0]];outlineConnect=0;fontColor=#232F3E;gradientColor=#F78E04;gradientDirection=north;fillColor=#D05C17;strokeColor=#ffffff;dashed=0;verticalLabelPosition=bottom;verticalAlign=top;align=center;html=1;fontSize=12;fontStyle=0;aspect=fixed;shape=mxgraph.aws4.resourceIcon;resIcon=mxgraph.aws4.ecs;labelBackgroundColor=default;" parent="1" vertex="1">
          <mxGeometry x="1280" y="320" width="78" height="78" as="geometry" />
        </mxCell>
        <mxCell id="JzuE-zLx8FnqEU072DFd-20" style="edgeStyle=orthogonalEdgeStyle;rounded=0;orthogonalLoop=1;jettySize=auto;html=1;" parent="1" source="JzuE-zLx8FnqEU072DFd-21" target="CRUREAMu9yNn37taTbQy-19" edge="1">
          <mxGeometry relative="1" as="geometry">
            <mxPoint x="1479.5882352941176" y="399.9999999999998" as="targetPoint" />
          </mxGeometry>
        </mxCell>
        <mxCell id="JzuE-zLx8FnqEU072DFd-22" value="" style="edgeStyle=orthogonalEdgeStyle;rounded=0;orthogonalLoop=1;jettySize=auto;html=1;" parent="1" edge="1">
          <mxGeometry relative="1" as="geometry">
            <mxPoint x="1599.9999999999998" y="359" as="targetPoint" />
            <mxPoint x="1510.820909090909" y="359.0588235294117" as="sourcePoint" />
          </mxGeometry>
        </mxCell>
        <mxCell id="JzuE-zLx8FnqEU072DFd-30" value="" style="edgeStyle=orthogonalEdgeStyle;rounded=0;orthogonalLoop=1;jettySize=auto;html=1;" parent="1" target="JzuE-zLx8FnqEU072DFd-3" edge="1">
          <mxGeometry relative="1" as="geometry">
            <mxPoint x="1198" y="359" as="sourcePoint" />
          </mxGeometry>
        </mxCell>
        <mxCell id="JzuE-zLx8FnqEU072DFd-32" value="" style="edgeStyle=orthogonalEdgeStyle;rounded=0;orthogonalLoop=1;jettySize=auto;html=1;" parent="1" source="JzuE-zLx8FnqEU072DFd-31" edge="1">
          <mxGeometry relative="1" as="geometry">
            <mxPoint x="1120" y="359" as="targetPoint" />
          </mxGeometry>
        </mxCell>
        <mxCell id="JzuE-zLx8FnqEU072DFd-31" value="User" style="sketch=0;outlineConnect=0;fontColor=#232F3E;gradientColor=none;fillColor=#232F3D;strokeColor=none;dashed=0;verticalLabelPosition=bottom;verticalAlign=top;align=center;html=1;fontSize=12;fontStyle=0;aspect=fixed;pointerEvents=1;shape=mxgraph.aws4.user;labelBackgroundColor=default;" parent="1" vertex="1">
          <mxGeometry x="960" y="320" width="78" height="78" as="geometry" />
        </mxCell>
        <mxCell id="CRUREAMu9yNn37taTbQy-1" value="Amazon&lt;br&gt;NetworkLoadBalancer" style="sketch=0;outlineConnect=0;fontColor=#232F3E;gradientColor=none;fillColor=#8C4FFF;strokeColor=none;dashed=0;verticalLabelPosition=bottom;verticalAlign=top;align=center;html=1;fontSize=12;fontStyle=0;aspect=fixed;pointerEvents=1;shape=mxgraph.aws4.network_load_balancer;" vertex="1" parent="1">
          <mxGeometry x="1120" y="322" width="78" height="78" as="geometry" />
        </mxCell>
        <mxCell id="CRUREAMu9yNn37taTbQy-2" value="" style="edgeStyle=orthogonalEdgeStyle;rounded=0;orthogonalLoop=1;jettySize=auto;html=1;" edge="1" parent="1" source="CRUREAMu9yNn37taTbQy-8" target="CRUREAMu9yNn37taTbQy-3">
          <mxGeometry relative="1" as="geometry" />
        </mxCell>
        <mxCell id="CRUREAMu9yNn37taTbQy-18" value="" style="edgeStyle=orthogonalEdgeStyle;rounded=0;orthogonalLoop=1;jettySize=auto;html=1;" edge="1" parent="1" source="CRUREAMu9yNn37taTbQy-3" target="CRUREAMu9yNn37taTbQy-20">
          <mxGeometry relative="1" as="geometry">
            <mxPoint x="1660" y="100" as="targetPoint" />
            <Array as="points">
              <mxPoint x="2120" y="200" />
              <mxPoint x="1480" y="200" />
            </Array>
          </mxGeometry>
        </mxCell>
        <mxCell id="CRUREAMu9yNn37taTbQy-3" value="Amazon&lt;br&gt;CodeDeploy" style="sketch=0;points=[[0,0,0],[0.25,0,0],[0.5,0,0],[0.75,0,0],[1,0,0],[0,1,0],[0.25,1,0],[0.5,1,0],[0.75,1,0],[1,1,0],[0,0.25,0],[0,0.5,0],[0,0.75,0],[1,0.25,0],[1,0.5,0],[1,0.75,0]];outlineConnect=0;fontColor=#232F3E;gradientColor=#4D72F3;gradientDirection=north;fillColor=#3334B9;strokeColor=#ffffff;dashed=0;verticalLabelPosition=bottom;verticalAlign=top;align=center;html=1;fontSize=12;fontStyle=0;aspect=fixed;shape=mxgraph.aws4.resourceIcon;resIcon=mxgraph.aws4.codedeploy;labelBackgroundColor=default;" vertex="1" parent="1">
          <mxGeometry x="2079.79" y="520" width="78" height="78" as="geometry" />
        </mxCell>
        <mxCell id="CRUREAMu9yNn37taTbQy-4" value="" style="edgeStyle=orthogonalEdgeStyle;shape=connector;rounded=0;orthogonalLoop=1;jettySize=auto;html=1;labelBackgroundColor=default;strokeColor=default;fontFamily=Helvetica;fontSize=11;fontColor=default;endArrow=classic;" edge="1" parent="1" source="JzuE-zLx8FnqEU072DFd-21" target="CRUREAMu9yNn37taTbQy-10">
          <mxGeometry relative="1" as="geometry">
            <mxPoint x="1676.6" y="559" as="sourcePoint" />
          </mxGeometry>
        </mxCell>
        <mxCell id="CRUREAMu9yNn37taTbQy-13" value="" style="edgeStyle=orthogonalEdgeStyle;rounded=0;orthogonalLoop=1;jettySize=auto;html=1;" edge="1" parent="1" source="CRUREAMu9yNn37taTbQy-7" target="CRUREAMu9yNn37taTbQy-12">
          <mxGeometry relative="1" as="geometry" />
        </mxCell>
        <mxCell id="CRUREAMu9yNn37taTbQy-7" value="Developer" style="sketch=0;outlineConnect=0;fontColor=#232F3E;gradientColor=none;fillColor=#232F3D;strokeColor=none;dashed=0;verticalLabelPosition=bottom;verticalAlign=top;align=center;html=1;fontSize=12;fontStyle=0;aspect=fixed;pointerEvents=1;shape=mxgraph.aws4.user;labelBackgroundColor=default;" vertex="1" parent="1">
          <mxGeometry x="1280" y="520" width="78" height="78" as="geometry" />
        </mxCell>
        <mxCell id="CRUREAMu9yNn37taTbQy-8" value="Amazon&lt;br&gt;Codebuild" style="sketch=0;points=[[0,0,0],[0.25,0,0],[0.5,0,0],[0.75,0,0],[1,0,0],[0,1,0],[0.25,1,0],[0.5,1,0],[0.75,1,0],[1,1,0],[0,0.25,0],[0,0.5,0],[0,0.75,0],[1,0.25,0],[1,0.5,0],[1,0.75,0]];outlineConnect=0;fontColor=#232F3E;gradientColor=#4D72F3;gradientDirection=north;fillColor=#3334B9;strokeColor=#ffffff;dashed=0;verticalLabelPosition=bottom;verticalAlign=top;align=center;html=1;fontSize=12;fontStyle=0;aspect=fixed;shape=mxgraph.aws4.resourceIcon;resIcon=mxgraph.aws4.codebuild;labelBackgroundColor=default;" vertex="1" parent="1">
          <mxGeometry x="1918.6" y="520" width="78" height="78" as="geometry" />
        </mxCell>
        <mxCell id="CRUREAMu9yNn37taTbQy-9" value="" style="edgeStyle=orthogonalEdgeStyle;shape=connector;rounded=0;orthogonalLoop=1;jettySize=auto;html=1;labelBackgroundColor=default;strokeColor=default;fontFamily=Helvetica;fontSize=11;fontColor=default;endArrow=classic;" edge="1" parent="1" source="CRUREAMu9yNn37taTbQy-10" target="CRUREAMu9yNn37taTbQy-8">
          <mxGeometry relative="1" as="geometry" />
        </mxCell>
        <mxCell id="CRUREAMu9yNn37taTbQy-10" value="Amazon&lt;br&gt;CodePipeline" style="sketch=0;points=[[0,0,0],[0.25,0,0],[0.5,0,0],[0.75,0,0],[1,0,0],[0,1,0],[0.25,1,0],[0.5,1,0],[0.75,1,0],[1,1,0],[0,0.25,0],[0,0.5,0],[0,0.75,0],[1,0.25,0],[1,0.5,0],[1,0.75,0]];outlineConnect=0;fontColor=#232F3E;gradientColor=#4D72F3;gradientDirection=north;fillColor=#3334B9;strokeColor=#ffffff;dashed=0;verticalLabelPosition=bottom;verticalAlign=top;align=center;html=1;fontSize=12;fontStyle=0;aspect=fixed;shape=mxgraph.aws4.resourceIcon;resIcon=mxgraph.aws4.codepipeline;labelBackgroundColor=default;fontFamily=Helvetica;" vertex="1" parent="1">
          <mxGeometry x="1756.6" y="520" width="78" height="78" as="geometry" />
        </mxCell>
        <mxCell id="CRUREAMu9yNn37taTbQy-16" value="" style="edgeStyle=orthogonalEdgeStyle;rounded=0;orthogonalLoop=1;jettySize=auto;html=1;" edge="1" parent="1" source="CRUREAMu9yNn37taTbQy-12" target="JzuE-zLx8FnqEU072DFd-21">
          <mxGeometry relative="1" as="geometry" />
        </mxCell>
        <mxCell id="JzuE-zLx8FnqEU072DFd-21" value="Amazon ECR" style="sketch=0;points=[[0,0,0],[0.25,0,0],[0.5,0,0],[0.75,0,0],[1,0,0],[0,1,0],[0.25,1,0],[0.5,1,0],[0.75,1,0],[1,1,0],[0,0.25,0],[0,0.5,0],[0,0.75,0],[1,0.25,0],[1,0.5,0],[1,0.75,0]];outlineConnect=0;fontColor=#232F3E;gradientColor=#F78E04;gradientDirection=north;fillColor=#D05C17;strokeColor=#ffffff;dashed=0;verticalLabelPosition=bottom;verticalAlign=top;align=center;html=1;fontSize=12;fontStyle=0;aspect=fixed;shape=mxgraph.aws4.resourceIcon;resIcon=mxgraph.aws4.ecr;labelBackgroundColor=default;" parent="1" vertex="1">
          <mxGeometry x="1598.6000000000001" y="520" width="78" height="78" as="geometry" />
        </mxCell>
        <mxCell id="CRUREAMu9yNn37taTbQy-12" value="Github &amp;amp;&lt;br&gt;Github Actions" style="dashed=0;outlineConnect=0;html=1;align=center;labelPosition=center;verticalLabelPosition=bottom;verticalAlign=top;shape=mxgraph.weblogos.github;labelBackgroundColor=default;" vertex="1" parent="1">
          <mxGeometry x="1441" y="520" width="78" height="78" as="geometry" />
        </mxCell>
        <mxCell id="CRUREAMu9yNn37taTbQy-19" value="ECS Task" style="sketch=0;outlineConnect=0;fontColor=#232F3E;gradientColor=none;fillColor=#D45B07;strokeColor=none;dashed=0;verticalLabelPosition=bottom;verticalAlign=top;align=center;html=1;fontSize=12;fontStyle=0;pointerEvents=1;shape=mxgraph.aws4.ecs_task;labelBackgroundColor=default;" vertex="1" parent="1">
          <mxGeometry x="1598.6" y="320" width="78" height="78" as="geometry" />
        </mxCell>
        <mxCell id="CRUREAMu9yNn37taTbQy-20" value="Echo Service" style="sketch=0;outlineConnect=0;fontColor=#232F3E;gradientColor=none;fillColor=#D45B07;strokeColor=none;dashed=0;verticalLabelPosition=bottom;verticalAlign=top;align=center;html=1;fontSize=12;fontStyle=0;pointerEvents=1;shape=mxgraph.aws4.ecs_service;labelBackgroundColor=default;" vertex="1" parent="1">
          <mxGeometry x="1441" y="320" width="78" height="78" as="geometry" />
        </mxCell>
      </root>
    </mxGraphModel>
  </diagram>
</mxfile>
